<svg id="Layer_1" data-name="Layer 1" xmlns="http://www.w3.org/2000/svg" viewBox="0 0 307.56 143.36"><defs><style>.cls-1{fill:#231f20;}.cls-2,.cls-3{fill:none;stroke:#231f20;stroke-miterlimit:10;}.cls-2{stroke-width:15px;}.cls-3{stroke-width:3px;}</style></defs><title>hb</title><path class="cls-1" d="M135.27,101.53h-0.06V99.32C135.25,100,135.27,100.77,135.27,101.53Z" transform="translate(162.28 -1.33)"/><line class="cls-2" x1="12.58" y1="0.01" x2="12.58" y2="143.34"/><path class="cls-1" d="M145.27,100.71C144.88,82.38,133.75,75.54,126,73h0c17-5.17,19-22.07,19.21-24.89,0.14-1.59.09-17.47,0.09-17.47-0.53-28.26-26.52-29.3-26.79-29.31H61.11c3.61,2.06,4.76,2.74,5.09,12.73V71.51h-45V12.3c0.43-8.33,1.69-9,5.08-11H1.11C4.47,3.25,5.75,4,6.2,12.08v121.3c-0.41,8.62-1.66,9.34-5.09,11.29H26.28c-3.39-1.93-4.65-2.6-5.08-10.92V74.51h45V133.6c-0.41,8.51-1.66,9.12-5.08,11.07H74.54l40.48,0q1.65,0,3.18-.12c24.51-1.74,26.8-23.65,27-26.4,0-.17,0-0.27,0-0.28l0.07-16.19v-1ZM81.2,4.33h27.19c1,0,22.61,1,23.82,25V47.63c0,0.92-.93,21.69-23.53,23.72,0,0-2.46.16-3.67,0.16H81.2V4.33Zm51,113.3c0,1-1,24.06-27.2,24.06H81.2V74.51s24.08-.51,27.64-0.06c6.44,1,22.35,4.63,23.37,24.93v18.25Z" transform="translate(162.28 -1.33)"/><line class="cls-2" x1="72.59" y1="0.01" x2="72.59" y2="143.34"/><line class="cls-3" x1="142.65" y1="29.3" x2="142.59" y2="46.77"/><line class="cls-3" x1="117.32" y1="1.5" x2="72.59" y2="1.5"/><line class="cls-3" x1="117.09" y1="141.85" x2="73.43" y2="141.85"/><line class="cls-3" x1="124.34" y1="71.67" x2="12.58" y2="71.67"/><path class="cls-3" d="M-45,2.83s25.34,0.69,25.34,28.69" transform="translate(162.28 -1.33)"/><path class="cls-3" d="M-19.69,117.84s-0.69,25.34-28.69,25.34" transform="translate(162.28 -1.33)"/><path class="cls-3" d="M-45,73s25.34,0.69,25.34,28.69" transform="translate(162.28 -1.33)"/><path class="cls-3" d="M-19.69,47.67S-20.38,73-48.38,73" transform="translate(162.28 -1.33)"/><line class="cls-3" x1="142.66" y1="99.36" x2="142.59" y2="116.83"/><line class="cls-3" x1="132.59" y1="25.52" x2="132.59" y2="47.77"/><path class="cls-3" d="M-55,2.83s25.34,0.69,25.34,28.69" transform="translate(162.28 -1.33)"/><path class="cls-3" d="M-29.69,47.67S-30.38,73-58.38,73" transform="translate(162.28 -1.33)"/><line class="cls-3" x1="132.59" y1="95.53" x2="132.59" y2="117.77"/><path class="cls-3" d="M-55,72.83s25.34,0.69,25.34,28.69" transform="translate(162.28 -1.33)"/><path class="cls-3" d="M-29.69,117.67S-30.38,143-58.38,143" transform="translate(162.28 -1.33)"/><polygon class="cls-1" points="112.59 71.5 121.28 67.03 128.25 59.82 132.02 50.41 132.66 23.34 126.31 10.56 114.83 2.59 117.3 0 117.39 0 126.66 3.71 134.9 9.06 141.19 19.58 142.59 31.87 142.02 50.41 135.34 63.59 126.55 69.5 118.25 71.46 112.59 71.5"/><polygon class="cls-1" points="112.59 141.51 121.28 137.03 128.25 129.83 132.02 120.41 132.66 93.35 126.31 80.56 113.9 71.5 126.66 73.71 134.9 79.06 141.19 89.59 142.59 101.87 142.02 120.41 135.34 133.6 126.55 139.5 118.25 141.46 112.59 141.51"/><path class="cls-1" d="M-144.45,1.34h7.33c-5.21,3-5.38,3-5.25,32.37C-142.29,52-144.45,1.34-144.45,1.34Z" transform="translate(162.28 -1.33)"/><path class="cls-1" d="M-155,1.34h-7.33c5.21,3,5.42,3,5.29,32.37C-157.07,52-155,1.34-155,1.34Z" transform="translate(162.28 -1.33)"/><path class="cls-1" d="M-155,144.67h-7.33c5.21-3,5.37-3.08,5.25-32.46C-157.11,93.87-155,144.67-155,144.67Z" transform="translate(162.28 -1.33)"/><path class="cls-1" d="M-144.45,144.67h7.33c-5.21-3-5.38-3-5.25-32.33C-142.29,94-144.45,144.67-144.45,144.67Z" transform="translate(162.28 -1.33)"/><path class="cls-1" d="M-94.95,1.34h-7.33c5.21,3,5.29,3,5.16,32.41C-97.2,52.08-94.95,1.34-94.95,1.34Z" transform="translate(162.28 -1.33)"/><path class="cls-1" d="M-94.95,144.67h-7.33c5.21-3,5.37-2.83,5.25-32.21C-97.11,94.12-94.95,144.67-94.95,144.67Z" transform="translate(162.28 -1.33)"/><path class="cls-1" d="M135.27,101.53h-0.06V99.32C135.25,100,135.27,100.77,135.27,101.53Z" transform="translate(162.28 -1.33)"/></svg>