<svg id="Layer_1" data-name="Layer 1" xmlns="http://www.w3.org/2000/svg" viewBox="0 0 144.17 143.36"><defs><style>.cls-1{fill:#231f20;}</style></defs><title>hb</title><path class="cls-1" d="M135.27,101.53h-0.06V99.32C135.25,100,135.27,100.77,135.27,101.53Z" transform="translate(-1.11 -1.33)"/><path class="cls-1" d="M145.27,100.71C144.88,82.38,133.75,75.54,126,73h0c17-5.17,19-22.07,19.21-24.89,0.14-1.59.09-17.47,0.09-17.47-0.53-28.26-26.52-29.3-26.79-29.31H61.11c3.61,2.06,4.76,2.74,5.09,12.73V71.51h-45V12.3c0.43-8.33,1.69-9,5.08-11H1.11C4.47,3.25,5.75,4,6.2,12.08v121.3c-0.41,8.62-1.66,9.34-5.09,11.29H26.28c-3.39-1.93-4.65-2.6-5.08-10.92V74.51h45V133.6c-0.41,8.51-1.66,9.12-5.08,11.07H74.54l40.48,0q1.65,0,3.18-.12c24.51-1.74,26.8-23.65,27-26.4,0-.17,0-0.27,0-0.28l0.07-16.19v-1ZM81.2,4.33h27.19c1,0,22.61,1,23.82,25V47.63c0,0.92-.93,21.69-23.53,23.72,0,0-2.46.16-3.67,0.16H81.2V4.33Zm51,113.3c0,1-1,24.06-27.2,24.06H81.2V74.51s24.08-.51,27.64-0.06c6.44,1,22.35,4.63,23.37,24.93v18.25Z" transform="translate(-1.11 -1.33)"/><path class="cls-1" d="M135.27,101.53h-0.06V99.32C135.25,100,135.27,100.77,135.27,101.53Z" transform="translate(-1.11 -1.33)"/></svg>