<?xml version="1.0" encoding="utf-8"?>
<!-- Generator: Adobe Illustrator 19.2.1, SVG Export Plug-In . SVG Version: 6.00 Build 0)  -->
<svg version="1.1" id="Layer_1" xmlns="http://www.w3.org/2000/svg" xmlns:xlink="http://www.w3.org/1999/xlink" x="0px" y="0px"
	 viewBox="0 0 145.7 145.7" style="enable-background:new 0 0 145.7 145.7;" xml:space="preserve">
<style type="text/css">
	.st0{fill:none;stroke:#000000;stroke-width:15;stroke-miterlimit:10;}
	.st1{fill:none;stroke:#000000;stroke-width:3;stroke-miterlimit:10;}
</style>
<path d="M135.3,101.5L135.3,101.5l-0.1-2.2C135.2,100,135.3,100.8,135.3,101.5z"/>
<path d="M145.3,100.7C144.9,82.4,133.8,75.5,126,73c-0.2,0.1-0.3,0.1-0.5,0.1v-0.3c0.2,0.1,0.3,0.1,0.5,0.2
	c17-5.2,19-22.1,19.2-24.9c0.1-1.6,0.1-16.6,0.1-16.6v-0.9c-0.5-28.3-26.5-29.3-26.8-29.3v0h0v0H73.7v0h-5.3c0,0-0.9,0-2.3,0h-5.1
	c3.6,2.1,4.8,2.7,5.1,12.7v57.5h-45V12.3c0.4-8.3,1.7-9,5.1-11h-5.1c-1.3,0-2.3,0-2.3,0H8.5c0,0-0.9,0-2.3,0H1.1
	C4.5,3.3,5.8,4,6.2,12.1v121.3c-0.4,8.6-1.7,9.3-5.1,11.3h5.1c1.3,0,2.3,0,2.3,0H19c0,0,0.9,0,2.3,0h5.1c-3.4-1.9-4.7-2.6-5.1-10.9
	V74.5h45v59.1c-0.4,8.5-1.7,9.1-5.1,11.1h5.1c1.3,0,2.3,0,2.3,0h6.1v0H115c1.1,0,2.2,0,3.2-0.1c24.5-1.7,26.8-23.7,27-26.4
	c0-0.2,0-0.3,0-0.3l0.1-16.2L145.3,100.7L145.3,100.7z M81.2,4.3h27.2c1,0,22.6,1,23.8,25v18.3c0,0.9-0.9,21.7-23.5,23.7h0
	c-0.1,0-0.1,0-0.2,0c-1.1,0.1-2.3,0.2-3.5,0.2H81.2V4.3z M132.2,117.6c0,1-1,24.1-27.2,24.1H81.2V74.5h29c5.4,0.7,21,4.6,22,24.9
	V117.6z"/>
<path d="M145.3,31.5L145.3,31.5l0-0.7C145.3,31,145.3,31.3,145.3,31.5z"/>
<path d="M126,73c-0.2,0.1-0.3,0.1-0.5,0.1v-0.3C125.6,72.9,125.8,73,126,73z"/>
<path d="M126,73c-0.2,0.1-0.3,0.1-0.5,0.1v-0.3C125.6,72.9,125.8,73,126,73z"/>
<path d="M145.2,117.9v0.3h0C145.2,118,145.2,117.9,145.2,117.9z"/>
<path d="M108.6,71.3c-0.1,0-0.1,0-0.2,0v0C108.5,71.3,108.5,71.3,108.6,71.3z"/>
<path d="M135.3,101.5L135.3,101.5l-0.1-2.2C135.2,100,135.3,100.8,135.3,101.5z"/>
</svg>
